<?xml version="1.0" standalone="no"?>
<!DOCTYPE svg PUBLIC "-//W3C//DTD SVG 20010904//EN"
 "http://www.w3.org/TR/2001/REC-SVG-20010904/DTD/svg10.dtd">
<svg version="1.0" xmlns="http://www.w3.org/2000/svg"
 width="1024.000000pt" height="1024.000000pt" viewBox="0 0 1024.000000 1024.000000"
 preserveAspectRatio="xMidYMid meet">

<g transform="translate(0.000000,1024.000000) scale(0.100000,-0.100000)"
fill="#000000" stroke="none">
<path d="M4907 8752 c-33 -36 -8 -102 39 -102 29 0 64 32 64 60 0 27 -35 60
-63 60 -13 0 -31 -8 -40 -18z"/>
<path d="M2313 8682 c-88 -31 -199 -127 -217 -188 -5 -18 -16 -22 -69 -26 -34
-3 -81 -15 -104 -26 -45 -23 -116 -98 -143 -152 -76 -152 -38 -334 93 -440 34
-28 78 -55 97 -61 53 -15 449 -22 680 -11 241 10 266 18 348 106 69 73 104
149 110 241 4 63 1 78 -24 131 -55 116 -166 204 -258 204 -43 0 -45 1 -74 53
-37 66 -98 122 -171 155 -74 35 -192 41 -268 14z m224 -141 c50 -25 99 -80
108 -120 5 -22 1 -40 -13 -64 -11 -17 -23 -42 -26 -53 l-7 -21 68 18 c145 41
215 17 273 -93 29 -54 26 -113 -10 -175 -38 -67 -76 -92 -153 -104 -34 -5
-214 -9 -400 -9 -383 0 -371 -2 -451 79 -40 41 -49 57 -53 95 -12 101 47 202
132 226 42 12 97 10 158 -5 21 -6 24 -2 36 60 31 157 197 239 338 166z"/>
<path d="M7417 8685 c-70 -27 -187 -129 -187 -163 0 -5 -33 -13 -72 -17 -67
-6 -77 -10 -125 -52 -115 -97 -160 -243 -114 -365 29 -77 78 -137 143 -175
l54 -33 349 -4 350 -5 70 -78 c39 -42 89 -97 111 -120 23 -23 39 -45 36 -48
-3 -3 0 -5 6 -5 7 0 11 10 9 22 -1 16 5 23 23 28 14 4 24 12 22 19 -2 8 3 9
15 2 18 -9 49 10 36 23 -12 11 28 18 41 7 23 -19 56 -22 49 -4 -5 12 -7 12
-14 1 -5 -7 -9 -9 -9 -5 0 5 9 22 21 39 12 16 18 32 15 35 -3 4 -6 2 -6 -4 0
-6 -7 -13 -15 -17 -13 -4 -14 -2 -5 14 6 11 8 25 5 30 -3 6 2 10 12 10 15 0
16 2 3 10 -13 8 -12 10 3 10 9 0 17 5 17 10 0 6 -8 10 -17 10 -14 0 -15 2 -4
9 9 6 10 11 2 15 -17 11 -34 46 -21 46 5 0 10 -7 10 -15 0 -8 4 -15 8 -15 5 0
9 7 9 15 0 8 -4 15 -9 15 -5 0 -6 4 -3 10 4 6 -1 7 -11 3 -13 -5 -16 -3 -11
10 4 11 -2 22 -18 33 -17 11 -25 26 -25 45 0 15 -5 31 -10 34 -6 4 -7 11 -4
17 4 6 -1 8 -12 4 -18 -5 -19 1 -20 82 0 74 -4 95 -28 144 -37 75 -99 132
-167 152 -29 9 -58 16 -65 16 -7 0 -20 15 -29 33 -32 66 -82 122 -136 152 -47
26 -65 30 -149 32 -65 2 -107 -2 -133 -12z m188 -124 c46 -21 102 -79 111
-118 5 -19 -1 -40 -21 -76 -24 -44 -25 -49 -9 -42 89 37 140 44 191 24 71 -27
118 -106 110 -185 -6 -60 -24 -92 -74 -130 l-36 -27 -351 2 c-379 3 -391 4
-450 59 -77 73 -70 177 19 262 34 33 40 35 120 38 l83 4 16 42 c50 131 181
197 291 147z m515 -501 c0 -5 -5 -10 -11 -10 -5 0 -7 5 -4 10 3 6 8 10 11 10
2 0 4 -4 4 -10z m-40 -54 c0 -2 -8 -10 -17 -17 -16 -13 -17 -12 -4 4 13 16 21
21 21 13z m-30 -39 c0 -2 -10 -12 -22 -23 l-23 -19 19 23 c18 21 26 27 26 19z"/>
<path d="M3613 8610 c-50 -22 -133 -102 -159 -151 -26 -51 -31 -173 -9 -240
38 -112 166 -203 283 -201 105 3 237 103 276 211 24 68 19 177 -12 237 -65
126 -258 200 -379 144z m194 -149 c108 -79 92 -226 -32 -286 -67 -33 -98 -28
-148 23 -44 45 -57 78 -57 141 0 123 137 194 237 122z"/>
<path d="M6090 8521 c-5 -11 -10 -43 -10 -72 0 -57 16 -78 61 -79 38 0 61 32
67 91 4 43 2 55 -13 66 -29 20 -92 17 -105 -6z"/>
<path d="M4660 8374 c-214 -25 -253 -35 -298 -77 -49 -46 -56 -73 -62 -237
l-5 -154 -155 -53 c-150 -50 -389 -162 -486 -226 l-46 -30 -37 39 c-79 82
-233 220 -259 231 -108 48 -269 -47 -547 -322 -158 -158 -286 -317 -321 -402
-34 -79 3 -144 230 -409 l30 -34 -26 -28 c-81 -88 -255 -467 -282 -613 -6 -35
-8 -36 -59 -43 -28 -3 -97 -6 -152 -6 -165 -1 -212 -20 -254 -103 -38 -77 -51
-195 -57 -527 -9 -490 8 -563 159 -702 47 -42 84 -72 84 -65 -1 41 4 47 37 47
19 0 36 -3 38 -7 8 -19 102 -53 143 -53 40 0 45 3 45 23 1 19 2 20 11 5 5 -10
18 -43 28 -75 11 -32 27 -76 36 -98 28 -67 155 -316 192 -377 l35 -57 -68 -86
c-175 -221 -184 -237 -170 -303 21 -94 335 -455 617 -707 30 -27 57 -50 60
-51 29 -7 48 -17 45 -22 -7 -12 94 -13 135 -2 28 8 62 34 121 93 46 45 67 64
48 42 -71 -81 -144 -145 -167 -145 -29 0 -32 -36 -3 -45 11 -3 20 -11 20 -17
0 -6 3 -8 7 -5 3 4 12 -1 19 -11 12 -15 13 -14 14 11 0 20 5 27 20 27 13 0 20
-7 20 -20 0 -16 7 -20 36 -20 19 0 42 7 50 15 9 8 24 15 35 15 10 0 19 6 19
14 0 8 15 17 36 21 36 6 68 28 58 38 -3 2 16 8 41 11 25 4 45 11 45 17 0 5 18
9 40 9 22 0 40 -4 40 -10 0 -5 14 -10 31 -10 32 0 55 -9 244 -100 87 -42 121
-54 123 -44 4 17 42 19 42 2 0 -9 4 -8 10 2 6 10 10 11 10 3 0 -20 20 -15 22
5 0 9 4 -40 8 -109 5 -103 10 -132 27 -160 38 -61 74 -86 138 -99 60 -12 60
-12 59 -46 l-2 -34 52 0 c49 0 55 -3 100 -49 31 -31 60 -51 80 -54 68 -12 119
-25 125 -33 3 -5 13 -11 21 -13 8 -2 30 -7 48 -11 84 -20 354 -8 371 17 3 5
17 10 30 10 28 2 90 30 110 50 7 8 20 12 28 9 9 -4 17 1 20 14 3 11 14 20 24
20 12 0 19 7 19 20 0 13 7 20 18 20 10 0 24 9 32 20 8 11 20 20 26 20 7 0 15
6 18 13 3 6 4 -31 1 -83 -2 -52 -1 -111 3 -130 8 -34 9 -35 67 -40 58 -5 60
-6 63 -35 2 -22 -4 -37 -22 -54 l-25 -24 19 -37 c18 -35 116 -134 165 -166 21
-14 26 -13 61 11 20 14 42 24 48 22 6 -2 13 -27 16 -55 3 -28 11 -57 18 -64
16 -15 213 -13 243 2 11 6 20 27 25 55 8 57 26 68 76 48 21 -8 48 -13 61 -9
13 3 53 37 90 75 72 75 80 97 51 152 -23 46 -12 65 45 73 78 10 85 21 89 123
2 48 0 104 -5 123 -9 35 -10 35 -68 38 -33 2 -63 9 -67 15 -14 21 -8 54 13 81
l20 26 -31 43 c-32 45 -102 109 -132 119 -9 4 -30 -3 -49 -18 -18 -13 -39 -24
-46 -24 -18 0 -40 39 -49 85 -11 63 -14 65 -143 66 l-116 1 70 14 c39 7 83 13
99 13 16 1 36 10 45 20 12 13 30 19 61 20 113 1 110 0 110 22 0 11 4 18 9 15
5 -4 11 -1 13 5 2 7 18 -17 35 -52 39 -77 113 -163 185 -212 66 -45 128 -56
333 -59 l150 -2 -105 -6 c-80 -5 -90 -7 -42 -8 34 -1 62 -6 62 -12 0 -5 9 -10
20 -10 11 0 20 -4 20 -10 0 -5 9 -10 20 -10 11 0 20 -4 20 -10 0 -17 71 -30
94 -18 12 6 22 11 24 10 1 -1 20 -2 42 -2 30 0 40 4 40 16 0 13 8 15 40 12 28
-2 40 0 40 9 0 8 -15 13 -42 14 -57 2 -33 5 155 20 128 10 160 10 167 -1 6 -9
9 -9 11 -1 5 13 145 38 155 28 11 -10 -73 -114 -166 -207 -95 -94 -312 -275
-435 -363 -44 -31 -88 -62 -97 -69 -17 -12 -17 -15 -1 -46 12 -24 18 -30 25
-20 6 11 10 11 16 0 5 -7 17 -10 28 -6 11 3 15 2 9 -3 -6 -4 -11 -19 -12 -33
l-1 -25 10 22 c6 13 15 23 20 23 16 0 23 2 40 11 11 6 19 5 24 -3 5 -7 3 -8
-6 -3 -9 5 -11 4 -6 -4 4 -6 13 -8 19 -4 21 13 117 9 117 -4 0 -7 5 -13 10
-13 6 0 10 6 10 14 0 16 113 31 118 16 6 -17 22 -11 22 8 1 16 1 16 14 -1 11
-14 15 -15 19 -5 4 10 6 10 6 1 1 -7 8 -13 17 -13 11 0 14 5 10 16 -5 13 -3
14 7 6 11 -10 52 -14 126 -12 38 0 38 10 0 11 l-34 1 29 9 c18 5 34 5 41 -1
18 -15 55 1 61 26 8 32 24 31 24 -1 0 -14 5 -25 10 -25 6 0 10 -7 10 -15 0 -8
5 -15 11 -15 6 0 8 9 4 21 -5 14 -4 19 4 15 7 -5 8 -1 4 9 -5 14 -8 14 -15 3
-7 -9 -8 -8 -4 5 3 10 6 21 6 24 0 3 8 -4 19 -16 11 -13 25 -19 35 -15 19 7
21 -7 4 -24 -9 -9 -9 -12 0 -12 6 0 14 10 17 23 5 19 11 23 37 19 19 -3 34 1
39 9 8 12 11 12 19 -1 9 -13 11 -13 20 0 6 9 13 11 18 5 9 -13 72 -16 72 -4 0
6 -4 8 -9 5 -5 -3 -14 0 -20 8 -8 10 -5 16 17 26 15 7 38 13 52 13 14 0 29 5
33 11 5 6 6 -1 3 -16 -3 -15 -2 -29 3 -32 5 -3 9 0 8 7 -1 34 6 46 34 58 30
12 30 13 10 20 -11 5 -21 11 -21 13 0 3 10 2 23 -3 12 -5 31 -5 42 0 12 4 14
8 6 8 -11 1 -12 4 -4 12 13 13 47 4 39 -10 -3 -5 3 -7 14 -4 28 7 25 19 -7 32
-21 8 -22 10 -5 7 13 -3 22 1 22 9 0 14 21 25 49 25 10 0 18 7 18 15 0 8 -8
15 -18 15 -15 0 -17 4 -9 24 5 13 6 27 3 30 -4 3 -1 6 5 6 7 0 12 5 12 10 0 6
-7 10 -16 10 -11 0 -15 -6 -11 -20 3 -13 0 -20 -9 -20 -8 0 -15 9 -15 20 -1
11 -2 26 -3 33 -1 8 9 11 28 9 18 -3 26 0 22 7 -4 6 -14 11 -22 11 -8 0 -13 4
-9 9 3 6 -1 13 -9 18 -8 4 -16 26 -17 48 -3 33 0 39 13 37 9 -1 19 2 23 8 3 5
0 8 -7 5 -7 -2 -21 7 -31 20 -17 24 -17 25 0 25 16 0 18 7 14 43 -3 33 -5 38
-12 22 -4 -11 -8 -15 -8 -8 -1 6 -4 19 -8 29 -5 13 -3 15 8 9 8 -4 4 2 -9 15
-13 12 -21 29 -18 37 5 11 2 13 -10 9 -14 -5 -15 -4 -4 8 10 13 9 18 -3 31 -9
8 -21 15 -27 15 -7 0 -9 12 -4 35 4 24 2 35 -5 35 -7 0 -9 5 -6 10 3 6 -15 33
-41 60 -41 44 -111 150 -98 150 3 0 -3 11 -11 24 -9 14 -27 68 -40 120 -45
181 -174 310 -325 323 l-56 5 -33 65 c-19 35 -64 97 -102 137 -74 80 -145 121
-259 152 -36 10 -69 24 -74 32 -5 8 -34 44 -64 81 -31 36 -48 59 -38 51 18
-14 18 -13 12 8 -5 13 -3 22 3 22 6 0 11 5 11 11 0 7 11 22 25 35 14 13 25 28
25 34 0 13 26 41 32 35 2 -2 9 5 16 15 7 12 8 20 2 20 -5 0 -10 8 -9 18 0 10
3 12 6 5 7 -19 21 -16 28 7 3 11 15 20 26 20 14 0 19 7 19 30 0 20 5 30 15 30
11 0 15 -11 15 -39 0 -58 8 -71 42 -71 56 0 132 -110 99 -143 -16 -16 -14 -59
5 -85 8 -12 34 -32 56 -43 39 -20 42 -20 78 -4 50 23 73 13 95 -38 28 -64 63
-97 102 -97 56 0 89 23 102 72 18 70 20 72 97 65 83 -6 123 9 150 58 16 30 16
38 4 74 -11 34 -11 46 1 78 14 36 17 38 67 43 31 3 57 12 62 20 14 22 12 164
-2 178 -7 7 -24 12 -39 12 -55 0 -75 15 -88 65 -10 42 -10 50 6 67 16 17 16
22 3 45 -21 37 -84 85 -112 85 -12 0 -39 -4 -58 -9 -63 -16 -77 -8 -85 48 -8
58 -16 63 -110 73 -76 9 -94 -3 -103 -69 -8 -56 -17 -61 -88 -50 -35 5 -44 10
-44 26 0 12 7 19 18 19 10 0 34 15 54 34 29 28 33 36 20 39 -9 2 12 10 47 18
l64 14 36 65 c57 103 84 271 85 520 1 177 -7 374 -13 325 -2 -15 -5 -11 -12
13 -5 17 -14 32 -20 32 -6 0 -7 5 -4 10 3 6 0 10 -8 10 -20 0 -45 60 -57 137
-27 169 -111 222 -350 223 -41 0 -91 3 -111 6 -34 6 -37 9 -59 78 -12 39 -42
121 -66 183 -24 62 -41 120 -38 130 4 12 3 14 -3 6 -6 -9 -13 -2 -23 25 -16
45 -20 72 -8 72 4 0 8 7 8 16 0 8 7 22 15 30 8 9 15 32 15 52 0 24 10 53 30
81 20 31 26 49 19 57 -7 8 -5 17 5 27 16 16 38 82 56 170 6 31 16 55 21 52 5
-4 9 -1 9 5 0 6 5 8 12 4 11 -7 -27 53 -42 66 -3 3 -11 19 -19 35 -37 85 -219
303 -398 475 -250 243 -384 319 -488 280 -41 -15 -141 -95 -231 -185 l-82 -80
-53 34 c-187 120 -354 194 -581 257 -16 5 -18 21 -18 150 0 108 -4 154 -15
182 -32 75 -88 112 -200 132 -67 12 -608 23 -685 14z m600 -180 c74 -10 119
-20 126 -29 7 -9 13 -87 16 -195 3 -100 8 -183 11 -186 3 -3 57 -20 120 -39
189 -54 507 -198 642 -290 l68 -47 66 65 c80 78 273 247 283 247 23 0 313
-253 419 -365 110 -117 229 -256 229 -268 0 -19 -78 -114 -192 -232 -62 -65
-112 -122 -110 -127 1 -5 25 -43 53 -85 114 -168 265 -521 302 -703 l13 -65
184 -6 c102 -4 204 -7 227 -8 37 -1 42 -4 52 -32 18 -52 34 -291 33 -509 0
-205 -19 -418 -42 -460 -10 -19 -20 -20 -163 -20 -84 0 -182 -3 -220 -7 -62
-5 -68 -8 -73 -32 -50 -223 -192 -555 -304 -709 l-60 -83 52 -62 c29 -34 85
-96 126 -138 l73 -75 -77 -39 c-93 -46 -199 -148 -240 -231 -26 -53 -27 -54
-69 -54 -94 0 -231 -102 -294 -220 -18 -33 -36 -60 -40 -60 -13 0 -109 99
-153 157 l-40 52 -91 -64 c-187 -128 -472 -252 -694 -300 l-80 -17 -9 -200
c-8 -167 -13 -202 -26 -212 -9 -7 -87 -23 -173 -35 -133 -20 -183 -23 -338
-19 -193 6 -363 33 -399 65 -14 13 -18 33 -18 97 0 45 -3 131 -7 193 l-6 111
-65 12 c-194 34 -606 214 -754 331 l-37 29 -59 -57 c-111 -109 -247 -239 -264
-252 -22 -17 -38 -7 -163 98 -195 165 -356 338 -467 503 -27 40 -27 41 -10 70
26 45 148 196 210 260 l55 56 -22 23 c-120 129 -297 517 -332 727 l-11 69
-136 7 c-74 3 -172 6 -218 6 -98 0 -109 7 -118 82 -19 166 -26 417 -17 580 10
161 28 338 35 346 4 3 261 20 375 24 l64 3 33 125 c58 227 166 458 334 716 12
20 11 24 -12 45 -103 95 -268 298 -268 330 0 75 566 629 643 629 15 0 53 -31
117 -96 52 -52 125 -122 162 -155 l67 -60 60 40 c145 99 482 249 661 295 69
18 130 35 136 39 7 4 13 76 17 187 4 99 11 189 17 199 12 23 47 30 217 41 154
10 429 3 573 -16z m2617 -3459 c0 -8 -4 -12 -9 -9 -5 3 -6 10 -3 15 9 13 12
11 12 -6z m-5704 -62 c-18 -2 -48 -2 -65 0 -18 2 -4 4 32 4 36 0 50 -2 33 -4z
m5823 -160 c17 -35 45 -63 63 -63 9 0 35 -9 58 -19 41 -19 42 -19 59 0 38 42
86 7 57 -42 -14 -23 -13 -31 8 -95 23 -67 25 -69 71 -84 30 -10 49 -22 52 -34
7 -28 -1 -36 -39 -36 -40 0 -74 -36 -100 -105 -17 -42 -17 -47 -1 -63 31 -35
11 -63 -29 -42 -20 11 -34 9 -91 -11 -68 -24 -74 -30 -91 -84 -7 -25 -14 -30
-37 -28 -36 3 -38 5 -45 49 -5 32 -11 38 -63 60 -52 22 -62 23 -102 12 -25 -7
-48 -9 -52 -5 -4 3 0 23 9 44 14 37 14 41 -9 89 -27 58 -46 77 -88 91 -42 13
-56 40 -31 59 11 8 26 12 33 9 23 -9 51 14 76 63 19 38 23 57 19 100 -5 48 -4
52 15 52 12 0 24 -4 27 -10 10 -17 42 -11 99 17 51 25 76 54 76 89 0 23 43 13
56 -13z m-376 -137 c-3 -36 -8 -68 -12 -72 -4 -3 -18 -4 -31 0 -24 6 -25 6
-10 48 8 24 20 46 26 50 7 4 13 12 13 18 2 18 4 20 12 20 4 0 5 -29 2 -64z
m-133 -158 c-3 -7 -5 -2 -5 12 0 14 2 19 5 13 2 -7 2 -19 0 -25z m6 -650 c81
-38 162 -122 182 -190 8 -28 15 -69 15 -90 l0 -39 84 7 c74 6 90 4 128 -15
176 -85 215 -331 72 -449 -91 -75 -62 -72 -630 -72 -567 0 -546 -2 -628 70
-61 54 -90 122 -91 210 0 87 19 134 77 192 61 61 92 73 185 71 l83 -1 11 41
c35 132 128 241 239 281 71 25 200 18 273 -16z m-3206 -790 c-3 -8 -6 -5 -6 6
-1 11 2 17 5 13 3 -3 4 -12 1 -19z m1752 -45 c-17 -92 -17 -93 -50 -93 -16 0
-43 10 -60 22 -29 21 -32 22 -58 7 -22 -13 -28 -13 -28 -3 0 8 7 14 16 14 9 0
27 9 41 20 14 11 33 20 43 20 9 0 17 7 17 15 0 8 9 15 20 15 11 0 20 4 20 9 0
5 10 12 23 14 12 2 23 5 23 6 1 0 -2 -20 -7 -46z m-222 -79 c4 -10 -12 -33
-46 -68 -60 -61 -64 -84 -21 -133 17 -18 30 -43 30 -54 0 -19 -5 -20 -69 -17
-38 2 -67 0 -64 -4 2 -5 -2 -8 -10 -8 -13 0 -13 5 -1 38 7 20 13 47 14 59 0
12 6 37 14 55 8 18 22 50 31 71 9 20 20 35 25 32 5 -3 12 0 15 6 4 5 14 8 22
5 9 -4 17 1 20 14 6 24 31 26 40 4z m417 -10 c3 -9 6 -29 6 -45 0 -23 5 -30
28 -35 15 -4 49 -18 75 -33 l48 -26 20 28 c24 31 36 34 56 10 33 -43 34 -51 8
-82 -14 -16 -21 -32 -16 -35 5 -4 17 -30 27 -59 22 -70 30 -77 78 -77 55 0 64
-8 68 -60 l3 -45 -62 -3 c-37 -2 -63 -7 -63 -14 0 -6 -12 -38 -27 -71 l-27
-60 27 -23 c15 -13 27 -27 27 -32 0 -11 -66 -72 -77 -72 -4 0 -17 9 -29 21
l-22 21 -77 -37 c-76 -37 -76 -37 -73 -74 l3 -36 -60 0 -60 0 -3 48 c-3 40 -6
47 -24 47 -11 0 -42 12 -69 27 l-49 26 -26 -24 -25 -24 -34 40 c-38 44 -42 60
-20 69 20 7 19 28 -4 101 l-19 60 -48 5 -49 5 -3 51 -3 51 52 9 c49 9 53 11
65 49 8 22 19 48 24 58 9 15 8 23 -4 36 -20 22 -21 61 -2 86 13 18 18 18 49 7
31 -11 43 -10 109 12 70 24 73 26 76 58 5 55 8 58 66 58 40 0 55 -4 60 -16z
m1024 -91 c-10 -2 -28 -2 -40 0 -13 2 -5 4 17 4 22 1 32 -1 23 -4z m1252 -418
c0 -5 -5 -3 -10 5 -5 8 -10 20 -10 25 0 6 5 3 10 -5 5 -8 10 -19 10 -25z
m-1295 -205 c-3 -5 -12 -10 -18 -10 -7 0 -6 4 3 10 19 12 23 12 15 0z m815
-11 c0 -6 -4 -7 -10 -4 -5 3 -10 11 -10 16 0 6 5 7 10 4 6 -3 10 -11 10 -16z"/>
<path d="M4686 7320 c-199 -23 -376 -74 -581 -167 -232 -106 -502 -308 -664
-498 -144 -168 -228 -292 -312 -461 -112 -228 -166 -408 -194 -644 -19 -157
-19 -259 0 -430 26 -232 73 -388 191 -625 172 -348 433 -632 761 -826 150 -90
179 -105 293 -151 185 -76 285 -103 478 -128 237 -31 415 -23 678 30 399 81
804 329 1073 655 79 95 214 301 266 405 136 272 215 595 215 880 0 190 -41
435 -101 606 -111 316 -353 668 -619 899 -89 77 -114 96 -245 182 -175 115
-389 202 -610 249 -114 24 -156 27 -340 30 -115 1 -246 -1 -289 -6z m529 -198
c-3 -3 -11 0 -18 7 -9 10 -8 11 6 5 10 -3 15 -9 12 -12z m44 -12 c163 1 279
-30 449 -120 284 -152 476 -316 676 -580 233 -309 348 -650 349 -1035 1 -423
-146 -824 -432 -1180 -40 -49 -80 -94 -88 -99 -11 -6 -14 -5 -8 3 4 8 -4 16
-24 24 -17 6 -32 16 -35 23 -2 6 16 39 40 74 24 35 46 71 49 81 4 11 15 19 26
19 14 0 19 7 19 29 0 16 6 31 15 35 8 3 15 13 14 23 0 16 -1 16 -9 -2 -14 -32
-11 -4 5 58 8 32 18 82 21 112 4 30 11 55 16 55 5 0 6 -19 2 -45 -5 -37 -4
-45 10 -45 13 0 15 12 12 86 -2 47 -7 88 -10 91 -6 6 -10 -27 -8 -59 1 -10 -2
-18 -6 -18 -4 0 -6 170 -4 377 3 311 6 383 18 409 13 27 14 49 5 140 -7 74 -6
114 1 127 6 11 15 110 21 220 8 173 8 202 -5 211 -8 6 -18 25 -23 41 l-8 30
-7 -25 -8 -25 -1 27 c-1 40 -91 224 -145 296 -52 70 -141 141 -233 184 -48 23
-81 30 -152 35 l-91 6 0 31 c0 39 -40 124 -71 153 -65 59 -185 73 -267 30 -65
-34 -114 -103 -120 -171 l-4 -51 -319 0 -319 0 0 24 c0 80 -68 177 -145 206
-68 27 -163 17 -216 -20 -67 -48 -101 -97 -107 -153 l-4 -49 -92 -6 c-152 -9
-290 -77 -382 -187 -63 -76 -136 -219 -155 -305 -10 -46 -13 -237 -13 -845 1
-781 1 -785 23 -865 29 -103 70 -188 127 -264 53 -71 212 -214 227 -204 5 3 7
1 4 -4 -4 -6 11 -30 32 -54 38 -43 40 -43 54 -24 11 15 12 22 4 27 -14 9 8 12
73 9 64 -3 80 -10 80 -32 0 -16 7 -19 45 -19 38 0 45 -3 45 -20 0 -11 7 -20
15 -20 8 0 15 -4 15 -10 0 -5 10 -10 23 -10 13 0 29 -6 35 -12 10 -10 15 -10
22 2 8 11 12 12 18 3 11 -17 67 -25 212 -30 100 -4 126 -8 137 -21 11 -16 12
-16 13 2 0 13 5 16 18 11 28 -12 202 -16 202 -5 0 6 32 10 75 10 53 0 75 -4
75 -12 0 -9 4 -8 10 2 6 10 10 11 10 3 0 -7 7 -13 15 -13 8 0 15 4 15 9 0 5
105 9 235 10 192 2 238 -1 250 -12 15 -15 107 -12 113 4 2 4 35 11 73 15 58 6
69 9 69 25 0 13 7 19 24 19 13 0 33 3 43 7 16 6 17 5 3 -12 -14 -17 -14 -18 8
-6 18 9 21 17 16 34 -6 20 -5 20 10 8 15 -12 19 -13 26 -1 5 7 16 15 26 16 47
7 -154 -135 -289 -205 -116 -59 -196 -90 -342 -130 -177 -49 -272 -62 -458
-61 -141 0 -189 4 -295 26 -318 64 -462 121 -692 272 -351 231 -533 443 -711
827 -125 271 -172 632 -126 960 21 148 34 198 50 189 9 -5 9 -4 1 5 -14 15 23
124 38 115 5 -3 7 -12 4 -20 -3 -8 -1 -14 4 -14 5 0 15 20 21 45 6 25 14 43
17 41 11 -12 46 42 44 65 -1 4 10 17 23 29 14 13 25 32 25 42 0 10 5 18 11 18
16 0 38 31 39 53 0 9 4 17 9 17 5 0 17 7 25 16 15 14 16 13 17 -8 1 -17 3 -14
10 12 17 63 20 67 29 45 8 -18 9 -17 9 7 1 40 11 58 32 58 17 0 18 3 9 20 -6
11 -7 20 -2 20 5 0 8 8 8 18 -1 38 17 122 26 122 6 0 8 7 4 15 -3 8 -1 15 3
15 5 0 23 19 40 42 17 23 31 38 31 33 0 -4 13 10 29 31 38 52 76 86 92 84 26
-4 39 0 39 11 0 8 -4 8 -14 0 -8 -7 -17 -8 -20 -3 -3 5 8 18 23 30 21 15 31
18 40 9 8 -8 16 -5 31 11 17 18 32 22 85 22 61 0 64 1 77 30 7 17 21 30 30 30
10 0 19 5 19 10 1 6 2 14 3 20 1 14 56 70 67 70 5 0 9 6 9 14 0 7 8 16 18 18
31 8 37 11 51 26 9 9 26 12 47 9 31 -5 67 15 47 25 -4 3 -2 3 5 1 8 -1 20 4
28 12 12 11 20 12 35 5 15 -8 23 -7 34 4 11 11 12 16 2 20 -6 4 -2 4 11 2 12
-2 22 1 22 7 0 8 4 7 12 -1 16 -16 28 -15 28 3 0 16 17 19 44 9 8 -3 12 -12 9
-20 -4 -11 7 -14 51 -14 31 0 56 5 56 10 0 6 9 10 20 10 11 0 20 -4 20 -10 0
-16 109 -12 126 5 11 11 39 15 102 16 48 1 125 4 172 8 47 4 96 3 109 -1 13
-5 44 -8 70 -8z m-1425 -326 c3 -8 2 -12 -4 -9 -6 3 -10 10 -10 16 0 14 7 11
14 -7z m605 -39 c24 -23 24 -27 28 -235 l3 -212 -30 -30 c-26 -25 -36 -29 -63
-24 -18 3 -44 20 -59 36 l-28 30 0 201 c0 118 4 208 10 219 15 28 61 51 90 44
14 -3 36 -16 49 -29z m1109 2 c21 -20 22 -25 22 -235 l0 -214 -29 -29 c-34
-34 -68 -37 -103 -9 -45 35 -50 64 -46 267 4 207 9 227 61 242 39 11 65 5 95
-22z m-1398 -352 l5 -130 39 -58 c67 -101 159 -133 279 -98 57 17 95 52 128
118 21 42 24 62 24 167 0 110 2 120 20 127 24 9 550 11 584 2 23 -6 23 -8 18
-82 -9 -130 24 -241 90 -303 37 -35 73 -48 135 -48 105 0 172 39 223 131 29
53 30 57 28 183 l-3 129 73 -5 c126 -8 249 -93 307 -211 36 -74 52 -139 29
-120 -12 10 -13 -2 -11 -77 l4 -88 -369 -7 c-202 -4 -494 -5 -648 -2 -154 3
-543 3 -865 -2 -322 -4 -586 -7 -587 -6 -2 1 1 46 7 100 7 82 15 111 44 170
80 161 216 246 386 242 l55 -2 5 -130z m-641 62 c-2 -1 -13 -9 -24 -17 -19
-14 -19 -14 -6 3 7 9 18 17 24 17 6 0 8 -1 6 -3z m2624 -444 c-13 -2 -33 -2
-45 0 -13 2 -3 4 22 4 25 0 35 -2 23 -4z m-2932 -64 c-5 -13 -10 -19 -10 -12
-1 15 10 45 15 40 3 -2 0 -15 -5 -28z m3143 -191 c3 -109 2 -198 -3 -198 -5 0
-9 91 -10 202 0 110 1 199 3 197 2 -2 6 -93 10 -201z m-179 -563 l0 -660 -23
-63 c-59 -164 -175 -281 -328 -332 -67 -23 -67 -23 -883 -23 -902 0 -883 -2
-1012 64 -66 33 -142 102 -182 165 -13 22 -37 73 -53 114 l-29 75 -3 663 -3
662 1258 -2 1258 -3 0 -660z m-1895 -1305 c0 -5 -7 -10 -15 -10 -8 0 -15 5
-15 10 0 6 7 10 15 10 8 0 15 -4 15 -10z"/>
<path d="M4228 7013 c7 -3 16 -2 19 1 4 3 -2 6 -13 5 -11 0 -14 -3 -6 -6z"/>
<path d="M3144 5755 c-3 -8 -4 -20 -2 -27 3 -7 7 -1 10 15 6 29 1 36 -8 12z"/>
<path d="M6352 5380 c0 -14 2 -19 5 -12 2 6 2 18 0 25 -3 6 -5 1 -5 -13z"/>
<path d="M6353 4900 c0 -25 2 -35 4 -22 2 12 2 32 0 45 -2 12 -4 2 -4 -23z"/>
<path d="M6353 4790 c0 -36 2 -50 4 -32 2 17 2 47 0 65 -2 17 -4 3 -4 -33z"/>
<path d="M6187 4186 c-4 -10 -5 -21 -2 -24 9 -9 17 6 13 25 -3 17 -4 17 -11
-1z"/>
<path d="M4091 5683 c-52 -2 -101 -9 -108 -15 -9 -7 -13 -42 -13 -122 0 -157
-1 -156 145 -156 110 0 114 1 134 26 18 22 20 40 20 130 0 91 -3 108 -20 125
-10 10 -29 18 -41 17 -13 -1 -66 -4 -117 -5z"/>
<path d="M4547 5672 c-14 -15 -17 -40 -17 -130 0 -149 3 -152 139 -152 116 0
127 3 146 40 18 34 14 222 -5 245 -10 12 -38 15 -130 15 -101 0 -119 -3 -133
-18z"/>
<path d="M5095 5676 c-18 -14 -23 -222 -6 -255 16 -29 49 -35 155 -27 123 9
126 13 126 156 0 83 -4 112 -15 123 -18 19 -236 21 -260 3z"/>
<path d="M5641 5673 c-22 -15 -22 -21 -19 -128 4 -153 6 -155 148 -155 98 0
108 2 128 23 20 21 22 34 22 134 0 88 -3 115 -16 127 -22 22 -231 22 -263 -1z"/>
<path d="M4558 5185 c-35 -20 -40 -40 -28 -106 6 -30 8 -75 5 -100 -5 -36 -2
-50 13 -69 18 -22 26 -24 128 -25 101 -1 110 1 131 21 21 21 23 32 23 134 0
143 -5 150 -122 150 -46 0 -92 2 -103 5 -11 3 -32 -2 -47 -10z"/>
<path d="M5113 5190 c-35 -14 -41 -37 -35 -154 6 -148 4 -146 148 -146 112 0
114 0 131 27 25 37 21 241 -4 261 -11 7 -50 12 -104 12 -48 0 -93 2 -101 4 -7
3 -23 1 -35 -4z"/>
<path d="M5636 5167 c-12 -18 -14 -44 -9 -131 8 -146 7 -144 154 -141 149 3
152 6 147 156 -2 71 -8 111 -17 122 -11 14 -34 17 -137 17 -117 0 -124 -1
-138 -23z"/>
<path d="M4000 4989 c-85 -40 -159 -105 -195 -170 -61 -112 -24 -264 88 -365
141 -128 295 -118 441 28 78 78 102 138 97 243 -2 39 -4 84 -5 101 l-1 32 -30
-27 c-74 -67 -137 -132 -205 -214 -95 -114 -105 -120 -143 -76 -61 71 -139
149 -148 149 -18 0 -8 26 26 63 18 20 38 37 42 37 5 0 32 -31 61 -70 29 -38
56 -70 60 -70 4 0 16 14 27 32 25 43 151 178 186 201 58 38 28 86 -74 121 -77
26 -151 21 -227 -15z"/>
<path d="M5110 4698 c-34 -13 -42 -44 -38 -160 4 -147 5 -147 160 -141 147 6
148 7 148 149 0 93 -2 105 -22 128 -21 23 -31 25 -126 28 -57 2 -112 0 -122
-4z"/>
<path d="M4560 4682 c-21 -17 -22 -26 -22 -129 0 -157 -4 -153 141 -153 152 0
150 -3 152 148 2 152 2 152 -141 152 -89 0 -112 -3 -130 -18z"/>
<path d="M5640 4680 c-19 -19 -20 -30 -16 -133 6 -146 7 -147 156 -147 141 0
144 3 148 147 4 98 2 106 -19 129 -21 23 -29 24 -136 24 -100 0 -115 -2 -133
-20z"/>
<path d="M7925 4379 c-73 -21 -165 -138 -165 -209 0 -39 24 -97 53 -129 30
-33 115 -71 158 -71 120 0 218 95 219 211 0 37 -8 58 -40 108 -57 89 -131 118
-225 90z m106 -105 c19 -10 38 -32 50 -59 18 -40 18 -48 6 -78 -34 -80 -120
-102 -176 -46 -36 35 -46 66 -37 112 13 72 90 106 157 71z"/>
<path d="M6108 2467 c-60 -23 -115 -73 -144 -133 -23 -47 -26 -62 -20 -110 16
-142 102 -224 233 -224 105 0 193 69 223 176 17 59 1 151 -34 205 -47 70 -180
114 -258 86z m134 -137 c59 -46 63 -144 8 -192 -46 -42 -107 -39 -154 6 -32
30 -36 39 -36 84 0 45 4 55 35 87 30 29 43 35 79 35 28 0 52 -7 68 -20z"/>
<path d="M6345 8365 c-5 -2 -22 -6 -37 -9 -20 -5 -30 -15 -36 -39 -17 -63 8
-87 89 -87 94 0 110 115 19 134 -14 2 -29 3 -35 1z"/>
<path d="M5902 8348 c-17 -17 -15 -84 4 -102 27 -27 104 -16 126 18 13 19 9
64 -8 80 -19 19 -104 22 -122 4z"/>
<path d="M6133 8228 c-36 -12 -43 -29 -43 -110 0 -64 16 -88 58 -88 51 0 57
12 60 115 4 94 4 95 -20 94 -12 -1 -37 -6 -55 -11z"/>
<path d="M7878 7442 c-3 -11 -22 -23 -48 -31 -90 -27 -176 -96 -218 -176 -24
-45 -27 -61 -27 -155 0 -96 2 -109 27 -152 47 -79 122 -153 180 -177 29 -12
66 -28 81 -36 46 -24 89 -18 176 26 88 45 125 82 179 179 60 107 63 200 10
304 -31 61 -115 143 -178 175 -32 15 -68 36 -81 45 -33 22 -95 21 -101 -2z
m138 -145 c48 -25 111 -94 130 -143 31 -80 5 -187 -62 -258 -55 -58 -148 -80
-236 -56 -44 13 -119 86 -148 145 -51 106 7 256 123 315 33 17 54 20 102 17
34 -2 74 -11 91 -20z"/>
<path d="M7839 7172 c-32 -28 -34 -35 -34 -92 0 -58 2 -63 37 -96 31 -28 45
-34 82 -34 37 0 51 6 80 33 58 55 61 130 6 182 -23 22 -42 29 -83 33 -49 4
-57 1 -88 -26z m144 -54 c31 -36 18 -81 -30 -107 -40 -21 -93 26 -93 80 0 57
81 75 123 27z"/>
<path d="M1856 7224 c-3 -9 -6 -30 -6 -48 0 -18 -5 -37 -12 -44 -19 -19 -87
-14 -124 9 l-34 21 -30 -24 c-17 -13 -45 -35 -62 -49 l-31 -26 26 -35 c16 -21
27 -48 27 -67 0 -27 -5 -34 -32 -46 -18 -7 -50 -16 -70 -20 l-38 -7 0 -82 c0
-105 11 -126 74 -142 27 -7 56 -19 64 -27 13 -14 12 -19 -7 -45 -30 -43 -27
-63 25 -125 56 -69 74 -76 107 -43 23 23 29 24 64 14 45 -12 53 -22 53 -68 0
-20 5 -41 12 -48 13 -13 99 -16 161 -6 35 6 37 8 37 46 0 22 5 48 10 59 13 24
61 25 95 3 31 -20 50 -13 104 37 46 43 47 47 26 145 -6 27 -4 32 17 37 12 4
32 7 44 7 11 0 30 11 43 24 20 21 22 32 19 112 l-3 89 -53 26 c-70 33 -79 49
-57 105 9 25 14 51 11 59 -8 21 -96 75 -120 75 -12 0 -30 -7 -40 -15 -27 -21
-63 -19 -75 4 -6 10 -13 37 -17 59 -7 46 -21 52 -134 52 -53 0 -69 -4 -74 -16z
m144 -117 c5 -37 8 -40 64 -63 l58 -24 28 20 c27 19 29 19 50 2 22 -18 22 -19
6 -51 -16 -30 -16 -36 -1 -81 19 -58 29 -67 75 -72 35 -3 35 -3 38 -55 l3 -53
-49 0 -49 0 -18 -56 c-13 -41 -14 -59 -6 -67 28 -28 -4 -82 -34 -57 -12 10
-26 8 -74 -14 -32 -14 -66 -26 -74 -26 -11 0 -17 -12 -19 -42 -3 -42 -4 -43
-40 -46 -39 -3 -42 0 -39 45 1 11 -4 25 -11 29 -37 24 -119 47 -167 48 -64 1
-87 22 -58 54 21 23 21 41 1 91 -16 40 -34 51 -86 51 -27 0 -28 2 -28 50 l0
50 45 0 c51 0 66 15 86 92 10 35 10 53 2 71 -17 37 -3 49 46 41 29 -5 61 -1
102 11 49 15 59 22 59 41 0 44 10 55 49 52 34 -3 36 -6 41 -41z"/>
<path d="M1860 6951 c-46 -24 -90 -87 -97 -138 -7 -57 21 -137 57 -163 116
-83 236 -53 290 71 31 74 21 141 -29 189 -61 59 -156 76 -221 41z m129 -101
c29 -15 45 -64 31 -92 -23 -43 -43 -58 -76 -58 -61 0 -100 95 -57 142 18 20
73 24 102 8z"/>
<path d="M7886 6405 c-53 -49 -17 -145 54 -145 71 0 106 89 55 144 -31 34 -73
34 -109 1z"/>
<path d="M8232 6423 c-17 -7 -42 -57 -42 -86 0 -35 30 -57 79 -57 34 0 49 6
72 29 36 36 37 58 4 94 -20 20 -35 27 -63 26 -20 0 -43 -3 -50 -6z"/>
<path d="M8219 6081 c-50 -50 -34 -109 34 -126 30 -8 69 12 87 45 11 21 -10
87 -33 102 -24 16 -59 7 -88 -21z"/>
<path d="M1766 4584 c-9 -8 -16 -30 -16 -48 0 -37 -15 -56 -44 -56 -48 0 -156
-96 -190 -169 -11 -25 -31 -63 -44 -83 -25 -41 -22 -83 7 -93 10 -3 28 -28 40
-56 13 -27 35 -64 49 -81 36 -43 110 -88 144 -88 20 0 28 -5 28 -17 0 -10 5
-35 10 -55 12 -41 47 -56 93 -39 22 9 26 17 29 57 3 47 3 47 51 61 54 16 139
93 182 168 22 36 32 45 54 45 34 0 61 28 61 62 0 48 -9 58 -54 58 -41 0 -42 1
-59 48 -10 27 -31 65 -48 86 -35 41 -123 96 -155 96 -18 0 -22 8 -28 46 -3 26
-11 53 -17 60 -16 19 -74 18 -93 -2z m117 -217 c44 -19 103 -87 118 -136 16
-54 1 -103 -48 -160 -44 -52 -85 -71 -150 -71 -109 1 -183 71 -191 181 -4 49
0 65 22 103 44 75 77 96 152 96 36 0 79 -6 97 -13z"/>
<path d="M1750 4250 c-29 -29 -27 -94 2 -114 23 -17 75 -21 94 -8 16 10 34 48
34 70 0 11 -9 31 -21 46 -26 33 -79 36 -109 6z"/>
<path d="M1873 3552 c-7 -4 -15 -44 -19 -91 -10 -114 -10 -114 -141 -31 l-53
33 -37 -25 c-21 -14 -62 -47 -90 -75 -61 -57 -67 -83 -29 -147 22 -38 31 -76
28 -118 -2 -15 -12 -18 -60 -18 -97 0 -102 -8 -102 -156 0 -119 1 -126 25
-149 19 -20 35 -25 72 -25 26 0 54 -4 62 -9 18 -11 8 -50 -24 -102 -34 -53
-31 -85 11 -146 36 -52 125 -123 155 -123 9 0 36 16 61 35 37 29 51 35 73 29
29 -7 39 -26 49 -96 4 -25 14 -52 22 -59 36 -30 290 -19 311 14 3 6 9 38 12
71 8 77 20 81 116 30 l72 -38 39 29 c72 55 115 98 134 135 l18 36 -28 60 c-16
32 -32 73 -35 91 -7 34 -9 33 93 48 69 11 78 35 74 201 -3 105 -10 115 -96
121 l-68 6 4 57 c3 37 12 67 26 87 12 17 22 38 22 46 0 23 -167 187 -190 187
-11 0 -40 -18 -64 -40 -43 -40 -43 -40 -79 -25 -36 15 -37 16 -52 110 -4 22
-12 43 -18 47 -16 10 -279 10 -294 0z m219 -178 l3 -67 47 -12 c25 -6 58 -19
72 -28 41 -27 62 -21 97 28 l32 44 44 -32 c74 -53 75 -69 7 -121 -25 -19 -40
-37 -34 -41 17 -10 43 -67 55 -119 l11 -49 67 2 67 2 0 -70 0 -70 -62 -3 -63
-3 -15 -60 c-9 -33 -24 -72 -33 -86 -17 -25 -16 -26 22 -63 l40 -39 -32 -38
c-18 -21 -36 -39 -41 -39 -5 0 -28 16 -52 35 -23 19 -47 35 -53 35 -6 0 -29
-11 -50 -25 -22 -13 -52 -27 -68 -31 -65 -14 -63 -11 -63 -75 l0 -59 -70 0
-69 0 -3 61 -3 62 -54 14 c-30 7 -69 24 -86 38 l-32 24 -39 -40 c-21 -21 -43
-39 -49 -39 -5 1 -29 18 -53 40 l-43 39 42 45 41 46 -20 47 c-11 27 -23 65
-27 86 l-8 39 -61 -4 -61 -3 -3 68 -3 67 58 0 58 0 38 87 37 87 -29 30 c-59
63 -59 73 2 125 l27 25 28 -26 c46 -43 81 -62 95 -50 6 5 41 19 77 30 l65 20
3 66 3 66 69 0 69 0 3 -66z"/>
<path d="M1923 3176 c-46 -21 -131 -103 -155 -150 -48 -93 -29 -223 44 -302
144 -156 392 -122 477 66 38 83 22 211 -37 294 -15 21 -51 53 -81 69 -46 26
-67 31 -135 34 -56 2 -91 -1 -113 -11z m143 -107 c33 -9 55 -23 84 -56 48 -54
56 -93 35 -153 -19 -54 -38 -76 -87 -101 -94 -48 -207 5 -240 112 -17 58 2
108 58 158 39 35 55 43 97 50 5 0 28 -4 53 -10z"/>
<path d="M3071 2843 c-1 -17 16 -25 25 -12 4 7 3 9 -4 5 -5 -3 -13 0 -15 6 -4
9 -6 10 -6 1z"/>
<path d="M3541 2629 c-49 -16 -76 -33 -121 -77 -51 -50 -61 -67 -81 -132 -43
-141 -25 -262 56 -373 73 -98 172 -143 301 -135 131 9 243 89 302 216 23 49
27 70 27 152 0 83 -3 102 -27 150 -81 166 -286 255 -457 199z m216 -148 c94
-47 146 -149 124 -237 -32 -125 -115 -190 -230 -182 -71 5 -123 35 -166 98
-24 35 -30 55 -33 110 -4 60 -1 75 24 120 60 111 172 147 281 91z"/>
<path d="M3642 2390 c-35 -15 -61 -51 -61 -85 l1 -30 12 35 c7 19 21 37 31 39
15 2 15 5 4 12 -9 6 5 9 43 8 37 -2 59 -7 62 -16 3 -7 11 -13 18 -13 21 0 -35
48 -62 54 -14 3 -36 1 -48 -4z"/>
<path d="M4435 2363 c11 -3 25 -9 32 -15 7 -5 13 -5 17 0 7 12 -18 22 -47 21
-21 -1 -21 -2 -2 -6z"/>
<path d="M8510 2310 c0 -6 7 -10 15 -10 8 0 15 2 15 4 0 2 -7 6 -15 10 -8 3
-15 1 -15 -4z"/>
<path d="M8580 2120 c0 -5 7 -7 15 -4 8 4 15 8 15 10 0 2 -7 4 -15 4 -8 0 -15
-4 -15 -10z"/>
<path d="M8416 1994 c-5 -14 -4 -15 9 -4 17 14 19 20 6 20 -5 0 -12 -7 -15
-16z"/>
<path d="M8260 1940 c0 -5 9 -10 20 -10 11 0 20 5 20 10 0 6 -9 10 -20 10 -11
0 -20 -4 -20 -10z"/>
<path d="M7134 1905 c-10 -8 -14 -15 -8 -15 6 0 17 7 24 15 16 19 9 19 -16 0z"/>
<path d="M8130 1875 c0 -8 2 -15 4 -15 2 0 6 7 10 15 3 8 1 15 -4 15 -6 0 -10
-7 -10 -15z"/>
<path d="M7054 1854 c-18 -14 -18 -15 4 -4 12 6 22 13 22 15 0 8 -5 6 -26 -11z"/>
<path d="M7216 1835 c-9 -26 -7 -32 5 -12 6 10 9 21 6 23 -2 3 -7 -2 -11 -11z"/>
<path d="M6880 1749 c-36 -21 -93 -53 -128 -70 -34 -17 -60 -35 -57 -40 4 -5
-2 -6 -11 -2 -13 5 -15 3 -9 -7 5 -8 4 -11 -3 -7 -5 4 -38 -7 -71 -24 -64 -33
-79 -46 -35 -29 30 12 37 12 31 3 -3 -5 10 -8 29 -9 19 0 34 4 34 9 0 5 7 7
15 3 8 -3 24 5 36 17 17 17 21 18 16 5 -4 -12 -1 -18 8 -18 8 0 15 4 15 9 0 5
11 12 25 15 14 4 25 12 23 19 -3 17 24 57 40 57 7 0 20 7 29 15 14 14 13 15
-12 9 -20 -5 -26 -4 -21 5 4 6 11 11 16 11 10 0 100 59 100 66 0 6 -1 6 -70
-37z m-111 -119 c6 0 11 -4 11 -10 0 -18 -29 -10 -35 10 -4 11 -11 17 -17 14
-7 -5 -8 -2 -3 6 6 10 11 10 20 -3 7 -10 17 -17 24 -17z m-113 -47 c-10 -10
-19 5 -10 18 6 11 8 11 12 0 2 -7 1 -15 -2 -18z m-29 1 c-3 -3 -12 -4 -19 -1
-8 3 -5 6 6 6 11 1 17 -2 13 -5z"/>
<path d="M6895 1730 c-3 -5 -1 -10 4 -10 6 0 11 5 11 10 0 6 -2 10 -4 10 -3 0
-8 -4 -11 -10z"/>
<path d="M6888 1663 c6 -2 18 -2 25 0 6 3 1 5 -13 5 -14 0 -19 -2 -12 -5z"/>
<path d="M6880 1629 c0 -5 5 -7 10 -4 6 3 10 8 10 11 0 2 -4 4 -10 4 -5 0 -10
-5 -10 -11z"/>
<path d="M6555 1550 c-3 -6 1 -7 9 -4 18 7 21 14 7 14 -6 0 -13 -4 -16 -10z"/>
<path d="M6321 1482 c-56 -23 -61 -27 -40 -33 15 -5 18 -7 7 -8 -12 -1 -15 -6
-11 -17 6 -15 7 -15 19 1 7 10 11 22 8 26 -6 10 63 40 84 37 8 -2 17 3 19 10
7 18 -14 14 -86 -16z"/>
<path d="M6121 1409 c-52 -16 -97 -32 -100 -35 -7 -8 26 -1 99 21 90 27 97 28
80 16 -13 -9 -13 -11 3 -11 10 0 17 8 17 20 0 11 -1 19 -2 19 -2 -1 -45 -14
-97 -30z"/>
<path d="M6230 1420 c0 -5 4 -10 9 -10 6 0 13 5 16 10 3 6 -1 10 -9 10 -9 0
-16 -4 -16 -10z"/>
<path d="M5940 1330 c-18 -12 -2 -12 25 0 13 6 15 9 5 9 -8 0 -22 -4 -30 -9z"/>
<path d="M5735 1300 c-27 -7 -27 -8 -5 -8 14 0 36 4 50 8 20 6 21 8 5 8 -11 0
-33 -4 -50 -8z"/>
<path d="M5448 1243 c6 -2 18 -2 25 0 6 3 1 5 -13 5 -14 0 -19 -2 -12 -5z"/>
<path d="M5378 1233 c12 -2 30 -2 40 0 9 3 -1 5 -23 4 -22 0 -30 -2 -17 -4z"/>
<path d="M4413 1223 c9 -2 25 -2 35 0 9 3 1 5 -18 5 -19 0 -27 -2 -17 -5z"/>
<path d="M5293 1223 c9 -2 23 -2 30 0 6 3 -1 5 -18 5 -16 0 -22 -2 -12 -5z"/>
<path d="M4518 1213 c7 -3 16 -2 19 1 4 3 -2 6 -13 5 -11 0 -14 -3 -6 -6z"/>
<path d="M4903 1193 c15 -2 39 -2 55 0 15 2 2 4 -28 4 -30 0 -43 -2 -27 -4z"/>
</g>
</svg>
