<?xml version="1.0" standalone="no"?>
<!DOCTYPE svg PUBLIC "-//W3C//DTD SVG 20010904//EN"
 "http://www.w3.org/TR/2001/REC-SVG-20010904/DTD/svg10.dtd">
<svg version="1.0" xmlns="http://www.w3.org/2000/svg"
 width="512.000000pt" height="512.000000pt" viewBox="0 0 512.000000 512.000000"
 preserveAspectRatio="xMidYMid meet">

<g transform="translate(0.000000,512.000000) scale(0.100000,-0.100000)"
fill="#000000" stroke="none">
<path d="M713 5101 c-73 -25 -127 -63 -168 -119 -56 -76 -65 -121 -65 -328 0
-163 2 -184 19 -205 13 -17 29 -23 56 -23 27 0 43 6 56 23 17 21 19 42 19 199
0 204 11 242 83 290 40 27 43 27 239 30 l198 4 0 -1881 0 -1881 -149 0 c-174
0 -232 -9 -312 -50 l-59 -30 0 393 0 392 56 45 c151 120 272 314 331 527 24
88 27 115 27 258 0 143 -3 170 -27 258 -58 212 -182 408 -333 528 l-54 44 0
293 0 293 -25 24 c-31 32 -69 32 -101 0 l-24 -24 2 -1723 3 -1723 32 -67 c40
-85 106 -151 191 -191 l67 -32 1267 -3 1267 -2 3 -181 3 -181 33 -29 c38 -34
83 -38 123 -11 14 9 64 50 112 90 l86 73 93 -79 c132 -112 153 -120 215 -82
44 27 53 67 53 248 l0 152 191 0 191 0 29 29 c43 44 41 95 -8 153 -58 69 -78
122 -78 208 0 55 6 87 22 121 27 60 89 129 116 129 39 0 104 48 126 93 20 42
21 57 21 468 l0 426 -23 21 c-30 28 -78 29 -103 1 -18 -20 -19 -46 -24 -438
l-5 -416 -1592 -3 -1593 -2 0 1880 0 1880 1579 0 c869 0 1586 -3 1595 -6 14
-6 16 -131 16 -1313 l0 -1308 23 -20 c12 -11 29 -22 38 -25 25 -9 78 18 84 44
3 13 4 617 3 1344 l-3 1321 -29 37 c-16 21 -47 47 -70 57 -40 18 -106 19
-1906 18 -1767 0 -1868 -1 -1917 -18z m67 -1918 c156 -272 156 -605 -1 -879
-24 -42 -67 -101 -96 -132 l-52 -57 0 630 0 630 54 -59 c29 -33 72 -92 95
-133z m1680 -2318 c0 -141 3 -193 14 -214 26 -49 99 -66 146 -34 21 14 108 85
175 144 19 17 22 16 80 -33 147 -123 155 -128 197 -128 30 0 46 7 69 29 l29
29 0 196 0 196 70 0 70 0 0 -240 0 -240 -1257 2 c-1397 3 -1281 -3 -1352 69
-46 45 -63 85 -69 156 -4 53 -1 70 21 116 31 61 57 89 113 117 38 19 64 19
867 20 l827 0 0 -185z m430 123 l0 -63 -68 0 c-66 0 -71 -2 -117 -40 -26 -22
-58 -48 -71 -58 l-24 -19 0 121 0 121 140 0 140 0 0 -62z m980 -359 l0 -421
-57 50 c-74 63 -92 72 -146 72 -47 0 -88 -22 -160 -86 -20 -19 -39 -34 -42
-34 -3 0 -5 189 -5 420 l0 420 205 0 205 0 0 -421z m385 404 c-68 -162 -71
-288 -11 -415 l23 -48 -118 0 -119 0 0 240 0 240 116 0 c107 0 116 -1 109 -17z"/>
<path d="M2214 4688 c-41 -19 -44 -45 -44 -369 l0 -310 25 -24 c30 -31 73 -32
103 -5 22 21 22 24 22 350 l0 329 -26 20 c-29 23 -48 25 -80 9z"/>
<path d="M2723 4680 c-30 -12 -34 -22 -162 -358 -71 -186 -109 -301 -106 -313
10 -31 46 -59 77 -59 37 0 63 27 85 89 l18 51 127 0 126 0 18 -47 c20 -57 55
-93 90 -93 30 0 74 41 74 70 0 11 -50 155 -111 318 -86 230 -118 303 -140 325
-30 28 -57 33 -96 17z m44 -428 c-33 -2 -61 -1 -63 1 -3 2 10 41 28 86 l32 82
31 -83 31 -83 -59 -3z"/>
<path d="M3235 4678 c-45 -24 -45 -27 -45 -359 0 -305 1 -317 21 -343 27 -34
77 -36 107 -3 18 19 22 37 24 115 l3 93 100 -113 c89 -100 105 -113 137 -116
29 -2 40 2 57 24 32 41 26 67 -31 135 -29 34 -65 77 -80 94 l-27 32 52 34 c64
42 107 118 107 189 0 97 -75 191 -175 219 -51 14 -224 14 -250 -1z m250 -173
c31 -30 32 -56 2 -91 -20 -23 -34 -28 -85 -32 l-62 -4 0 76 0 76 60 0 c51 0
65 -4 85 -25z"/>
<path d="M3795 4665 c-41 -40 -33 -68 65 -218 l90 -138 0 -145 c0 -161 10
-199 57 -210 36 -9 75 6 90 36 8 17 13 74 13 169 l0 144 90 139 c95 147 109
188 73 220 -57 50 -93 30 -173 -92 -36 -55 -67 -100 -70 -100 -3 0 -33 44 -67
98 -79 124 -119 147 -168 97z"/>
<path d="M1522 4673 c-7 -3 -19 -18 -27 -33 -22 -42 -22 -584 -1 -635 19 -44
36 -48 188 -43 139 4 177 18 244 85 139 142 133 434 -13 563 -63 55 -120 70
-262 69 -64 0 -122 -3 -129 -6z m251 -157 c68 -29 97 -88 97 -200 0 -55 -5
-82 -22 -116 -33 -63 -66 -83 -143 -88 l-65 -4 0 211 0 211 50 0 c28 0 65 -6
83 -14z"/>
<path d="M2704 3769 c-439 -31 -824 -375 -916 -818 -29 -139 -21 -358 16 -486
32 -108 104 -258 149 -310 38 -44 82 -51 117 -20 31 28 25 74 -19 148 -96 157
-125 265 -125 462 -1 173 17 253 85 389 49 98 81 143 167 229 123 125 276 207
451 243 102 20 292 15 385 -10 258 -71 455 -234 571 -471 60 -124 76 -188 82
-341 9 -208 -31 -355 -139 -521 -112 -171 -270 -290 -478 -359 -79 -26 -97
-28 -245 -28 -190 -1 -269 17 -422 95 -52 27 -103 49 -114 49 -27 0 -69 -44
-69 -72 0 -37 26 -65 95 -103 81 -46 200 -89 301 -110 93 -19 280 -22 374 -6
599 106 979 705 819 1291 -27 99 -106 259 -168 341 -218 287 -548 434 -917
408z"/>
<path d="M2237 2972 c-24 -27 -22 -85 4 -108 20 -18 46 -19 523 -22 275 -1
511 0 524 3 58 14 82 85 42 125 -19 19 -33 20 -548 20 -500 0 -530 -1 -545
-18z"/>
<path d="M2270 2603 c-33 -13 -50 -37 -50 -73 0 -73 -26 -70 563 -70 514 0
528 1 547 20 25 25 26 71 1 101 l-19 24 -514 2 c-282 1 -520 -1 -528 -4z"/>
</g>
</svg>
