<?xml version="1.0" standalone="no"?>
<!DOCTYPE svg PUBLIC "-//W3C//DTD SVG 20010904//EN"
 "http://www.w3.org/TR/2001/REC-SVG-20010904/DTD/svg10.dtd">
<svg version="1.0" xmlns="http://www.w3.org/2000/svg"
 width="400.000000pt" height="400.000000pt" viewBox="0 0 400.000000 400.000000"
 preserveAspectRatio="xMidYMid meet">

<g transform="translate(0.000000,400.000000) scale(0.100000,-0.100000)"
fill="#000000" stroke="none">
<path d="M489 3948 c-111 -169 -239 -452 -324 -718 -52 -164 -126 -523 -146
-710 -18 -162 -18 -598 0 -760 20 -189 96 -556 146 -710 24 -74 47 -148 51
-164 4 -16 25 -47 47 -69 30 -30 35 -39 20 -35 -21 5 -21 5 -5 -41 21 -64 168
-348 201 -391 15 -19 39 -55 53 -80 14 -25 36 -56 48 -70 12 -14 34 -43 47
-65 14 -22 30 -44 37 -50 6 -5 24 -27 39 -48 l28 -37 953 0 954 0 5 22 c3 13
9 53 12 90 8 74 32 111 68 106 35 -5 57 -62 57 -145 0 -70 1 -73 24 -73 18 0
27 9 40 42 17 43 68 108 85 108 5 0 19 16 31 35 42 69 96 38 198 -112 43 -63
72 -81 109 -68 16 5 47 43 145 175 118 159 235 368 324 582 14 35 32 77 39 93
36 86 112 350 142 495 66 317 83 478 83 790 0 297 -17 471 -73 745 -14 66 -28
136 -31 155 -10 60 -121 390 -170 505 -55 129 -153 316 -208 398 l-39 57
-1478 0 -1478 0 -34 -52z m1991 -1814 c25 -5 30 -11 30 -33 0 -21 -8 -31 -35
-44 -38 -18 -80 -23 -71 -8 8 12 -34 1 -61 -17 -29 -18 -29 -12 2 34 14 20 25
42 25 48 0 22 24 37 52 31 16 -3 42 -8 58 -11z m-1580 -54 c0 -13 -6 -20 -17
-19 -11 0 -13 3 -5 6 6 2 12 11 12 19 0 8 2 14 5 14 3 0 5 -9 5 -20z m1989
-132 c-1 -22 -3 -26 -6 -13 -3 11 -10 26 -15 33 -8 9 -6 12 6 12 12 0 16 -9
15 -32z m51 7 c0 -14 -4 -25 -10 -25 -5 0 -10 11 -10 25 0 14 5 25 10 25 6 0
10 -11 10 -25z m-117 -92 c-7 -2 -19 -2 -25 0 -7 3 -2 5 12 5 14 0 19 -2 13
-5z m-1143 -208 c17 -9 30 -20 30 -25 0 -6 7 -10 15 -10 14 0 21 -38 15 -80
-2 -19 -3 -20 -28 -25 -11 -2 -23 3 -26 11 -8 20 -29 17 -54 -7 -12 -11 -27
-17 -33 -13 -6 3 -17 -3 -25 -15 -12 -17 -23 -20 -57 -16 -23 2 -43 8 -45 14
-6 18 -42 13 -42 -6 0 -13 -4 -12 -14 7 -10 19 -10 28 -1 40 6 8 17 29 24 47
10 23 21 34 44 39 18 3 40 13 49 21 10 9 26 13 38 10 11 -3 20 -1 20 3 0 7 12
12 53 19 4 0 21 -6 37 -14z m1777 -243 c-10 -10 -17 -25 -17 -33 0 -8 -17 -32
-37 -54 -36 -38 -38 -39 -41 -17 -5 33 17 82 37 82 9 0 22 9 29 20 7 11 20 20
29 20 15 0 15 -1 0 -18z m-2079 -5 c7 -8 6 -18 -3 -31 -16 -21 -35 -14 -35 13
0 31 20 40 38 18z m656 -723 c30 -11 16 -31 -26 -38 -48 -8 -67 4 -43 28 17
17 42 20 69 10z m-549 -34 c4 -6 1 -17 -5 -25 -10 -13 -16 -12 -44 2 l-31 17
30 7 c17 4 33 7 37 8 4 0 10 -4 13 -9z m192 2 c7 -4 11 -16 9 -27 -3 -18 -10
-20 -62 -17 -83 3 -104 9 -98 27 4 9 24 15 57 18 29 2 59 4 67 5 8 1 20 -2 27
-6z m176 1 c24 -23 -58 -50 -118 -39 -30 6 -33 9 -22 20 7 8 22 16 33 19 29 7
100 8 107 0z m1131 -28 c-4 -8 -10 -15 -15 -15 -4 0 -6 7 -3 15 4 8 10 15 15
15 4 0 6 -7 3 -15z m-94 -125 c0 -5 -5 -10 -11 -10 -5 0 -7 5 -4 10 3 6 8 10
11 10 2 0 4 -4 4 -10z"/>
<path d="M1700 1540 c0 -5 4 -10 9 -10 6 0 13 5 16 10 3 6 -1 10 -9 10 -9 0
-16 -4 -16 -10z"/>
</g>
</svg>
